<?xml version="1.0" encoding="UTF-8"?>
<svg width="669px" height="163px" viewBox="0 0 669 163" version="1.1" xmlns="http://www.w3.org/2000/svg" xmlns:xlink="http://www.w3.org/1999/xlink">
    <!-- Generator: Sketch 55.2 (78181) - https://sketchapp.com -->
    <title>Group 235</title>
    <desc>Created with Sketch.</desc>
    <g id="Test-Pages" stroke="none" stroke-width="1" fill="none" fill-rule="evenodd">
        <g id="Group-235">
            <g id="Group-234">
                <polygon id="Fill-1" fill="#3A4245" points="0 163 669 163 669 154 0 154"></polygon>
                <polygon id="Fill-2" fill="#3A4245" points="320 160 369.001 160 369.001 18 320 18"></polygon>
                <polygon id="Fill-3" fill="#FFFFFE" points="333 53 337.999 53 337.999 34 333 34"></polygon>
                <polygon id="Fill-4" fill="#FFFFFE" points="342 53 347 53 347 34 342 34"></polygon>
                <polygon id="Fill-5" fill="#FFFFFE" points="351 53 356 53 356 34 351 34"></polygon>
                <polygon id="Fill-6" fill="#FFFFFE" points="360 53 365 53 365 34 360 34"></polygon>
                <polygon id="Fill-7" fill="#FFFFFE" points="324 76 328.999 76 328.999 57 324 57"></polygon>
                <polygon id="Fill-8" fill="#FFFFFE" points="333 76 337.999 76 337.999 57 333 57"></polygon>
                <polygon id="Fill-9" fill="#FFFFFE" points="351 76 356 76 356 57 351 57"></polygon>
                <polygon id="Fill-10" fill="#FFFFFE" points="324 99 328.999 99 328.999 80 324 80"></polygon>
                <polygon id="Fill-11" fill="#FFFFFE" points="333 99 337.999 99 337.999 80 333 80"></polygon>
                <polygon id="Fill-12" fill="#FFFFFE" points="342 99 347 99 347 80 342 80"></polygon>
                <polygon id="Fill-13" fill="#FFFFFE" points="351 99 356 99 356 80 351 80"></polygon>
                <polygon id="Fill-14" fill="#FFFFFE" points="360 99 365 99 365 80 360 80"></polygon>
                <polygon id="Fill-15" fill="#FFFFFE" points="324 122 328.999 122 328.999 103 324 103"></polygon>
                <polygon id="Fill-16" fill="#FFFFFE" points="342 122 347 122 347 103 342 103"></polygon>
                <polygon id="Fill-17" fill="#FFFFFE" points="351 122 356 122 356 103 351 103"></polygon>
                <polygon id="Fill-18" fill="#FFFFFE" points="360 122 365 122 365 103 360 103"></polygon>
                <polygon id="Fill-19" fill="#FFFFFE" points="324 145 328.999 145 328.999 126 324 126"></polygon>
                <polygon id="Fill-20" fill="#FFFFFE" points="333 145 337.999 145 337.999 126 333 126"></polygon>
                <polygon id="Fill-21" fill="#FFFFFE" points="342 145 347 145 347 126 342 126"></polygon>
                <polygon id="Fill-22" fill="#FFFFFE" points="360 145 365 145 365 126 360 126"></polygon>
                <polygon id="Fill-23" fill="#3A4245" points="173 160 212 160 212 47.001 173 47.001"></polygon>
                <polygon id="Fill-24" fill="#FFFFFE" points="176 67 181 67 181 60 176 60"></polygon>
                <polygon id="Fill-25" fill="#FFFFFE" points="191 67 195 67 195 60 191 60"></polygon>
                <polygon id="Fill-26" fill="#FFFFFE" points="198 67 202 67 202 60 198 60"></polygon>
                <polygon id="Fill-27" fill="#FFFFFE" points="206 67 209.001 67 209.001 60 206 60"></polygon>
                <polygon id="Fill-28" fill="#FFFFFE" points="176 77 181 77 181 69 176 69"></polygon>
                <polygon id="Fill-29" fill="#FFFFFE" points="184 77 188 77 188 69 184 69"></polygon>
                <polygon id="Fill-30" fill="#FFFFFE" points="191 77 195 77 195 69 191 69"></polygon>
                <polygon id="Fill-31" fill="#FFFFFE" points="206 77 209.001 77 209.001 69 206 69"></polygon>
                <polygon id="Fill-32" fill="#FFFFFE" points="176 86 181 86 181 78 176 78"></polygon>
                <polygon id="Fill-33" fill="#FFFFFE" points="191 86 195 86 195 78 191 78"></polygon>
                <polygon id="Fill-34" fill="#FFFFFE" points="198 86 202 86 202 78 198 78"></polygon>
                <polygon id="Fill-35" fill="#FFFFFE" points="206 86 209.001 86 209.001 78 206 78"></polygon>
                <polygon id="Fill-36" fill="#FFFFFE" points="176 96 181 96 181 88 176 88"></polygon>
                <polygon id="Fill-37" fill="#FFFFFE" points="184 96 188 96 188 88 184 88"></polygon>
                <polygon id="Fill-38" fill="#FFFFFE" points="191 96 195 96 195 88 191 88"></polygon>
                <polygon id="Fill-39" fill="#FFFFFE" points="198 96 202 96 202 88 198 88"></polygon>
                <polygon id="Fill-40" fill="#FFFFFE" points="206 96 209.001 96 209.001 88 206 88"></polygon>
                <polygon id="Fill-41" fill="#FFFFFE" points="176 105 181 105 181 97 176 97"></polygon>
                <polygon id="Fill-42" fill="#FFFFFE" points="191 105 195 105 195 97 191 97"></polygon>
                <polygon id="Fill-43" fill="#FFFFFE" points="206 105 209.001 105 209.001 97 206 97"></polygon>
                <polygon id="Fill-44" fill="#FFFFFE" points="176 115 181 115 181 107 176 107"></polygon>
                <polygon id="Fill-45" fill="#FFFFFE" points="191 115 195 115 195 107 191 107"></polygon>
                <polygon id="Fill-46" fill="#FFFFFE" points="198 115 202 115 202 107 198 107"></polygon>
                <polygon id="Fill-47" fill="#FFFFFE" points="206 115 209.001 115 209.001 107 206 107"></polygon>
                <polygon id="Fill-48" fill="#FFFFFE" points="176 123 181 123 181 116 176 116"></polygon>
                <polygon id="Fill-49" fill="#FFFFFE" points="184 123 188 123 188 116 184 116"></polygon>
                <polygon id="Fill-50" fill="#FFFFFE" points="191 123 195 123 195 116 191 116"></polygon>
                <polygon id="Fill-51" fill="#FFFFFE" points="206 123 209.001 123 209.001 116 206 116"></polygon>
                <polygon id="Fill-52" fill="#FFFFFE" points="191 133 195 133 195 125 191 125"></polygon>
                <polygon id="Fill-53" fill="#FFFFFE" points="198 133 202 133 202 125 198 125"></polygon>
                <polygon id="Fill-54" fill="#FFFFFE" points="176 143 181 143 181 134 176 134"></polygon>
                <polygon id="Fill-55" fill="#FFFFFE" points="184 143 188 143 188 134 184 134"></polygon>
                <polygon id="Fill-56" fill="#FFFFFE" points="191 143 195 143 195 134 191 134"></polygon>
                <polygon id="Fill-57" fill="#FFFFFE" points="198 143 202 143 202 134 198 134"></polygon>
                <polygon id="Fill-58" fill="#FFFFFE" points="206 143 209.001 143 209.001 134 206 134"></polygon>
                <polygon id="Fill-59" fill="#FFFFFE" points="176 152 181 152 181 144 176 144"></polygon>
                <polygon id="Fill-60" fill="#FFFFFE" points="191 152 195 152 195 144 191 144"></polygon>
                <polygon id="Fill-61" fill="#FFFFFE" points="206 152 209.001 152 209.001 144 206 144"></polygon>
                <polygon id="Fill-62" fill="#3A4245" points="271 160 315 160 315 32 271 32"></polygon>
                <polygon id="Fill-63" fill="#FFFFFE" points="283 64 287 64 287 47.001 283 47.001"></polygon>
                <polygon id="Fill-64" fill="#FFFFFE" points="299 64 303 64 303 47.001 299 47.001"></polygon>
                <polygon id="Fill-65" fill="#FFFFFE" points="307 64 311 64 311 47.001 307 47.001"></polygon>
                <polygon id="Fill-66" fill="#FFFFFE" points="283 85 287 85 287 68 283 68"></polygon>
                <polygon id="Fill-67" fill="#FFFFFE" points="291 85 295 85 295 68 291 68"></polygon>
                <polygon id="Fill-68" fill="#FFFFFE" points="307 85 311 85 311 68 307 68"></polygon>
                <polygon id="Fill-69" fill="#FFFFFE" points="283 105 287 105 287 88 283 88"></polygon>
                <polygon id="Fill-70" fill="#FFFFFE" points="299 105 303 105 303 88 299 88"></polygon>
                <polygon id="Fill-71" fill="#FFFFFE" points="307 105 311 105 311 88 307 88"></polygon>
                <polygon id="Fill-72" fill="#FFFFFE" points="283 126 287 126 287 109 283 109"></polygon>
                <polygon id="Fill-73" fill="#FFFFFE" points="291 126 295 126 295 109 291 109"></polygon>
                <polygon id="Fill-74" fill="#FFFFFE" points="307 126 311 126 311 109 307 109"></polygon>
                <polygon id="Fill-75" fill="#FFFFFE" points="291 147 295 147 295 129 291 129"></polygon>
                <polygon id="Fill-76" fill="#FFFFFE" points="307 147 311 147 311 129 307 129"></polygon>
                <polygon id="Fill-77" fill="#3A4245" points="427 159.9999 465 159.9999 465 13.9999 427 -0.0001"></polygon>
                <polygon id="Fill-78" fill="#FFFFFE" points="431 26 461.001 26 461.001 23 431 23"></polygon>
                <polygon id="Fill-79" fill="#FFFFFE" points="431 32 461.001 32 461.001 29 431 29"></polygon>
                <polygon id="Fill-80" fill="#FFFFFE" points="431 38 461.001 38 461.001 34.999 431 34.999"></polygon>
                <polygon id="Fill-81" fill="#FFFFFE" points="431 44 461.001 44 461.001 41 431 41"></polygon>
                <polygon id="Fill-82" fill="#FFFFFE" points="431 50 461.001 50 461.001 47 431 47"></polygon>
                <polygon id="Fill-83" fill="#FFFFFE" points="431 56 461.001 56 461.001 52.999 431 52.999"></polygon>
                <polygon id="Fill-84" fill="#FFFFFE" points="431 62 461.001 62 461.001 59 431 59"></polygon>
                <polygon id="Fill-85" fill="#FFFFFE" points="431 68 461.001 68 461.001 65 431 65"></polygon>
                <polygon id="Fill-86" fill="#FFFFFE" points="431 80 461.001 80 461.001 77 431 77"></polygon>
                <polygon id="Fill-87" fill="#FFFFFE" points="431 86 461.001 86 461.001 83 431 83"></polygon>
                <polygon id="Fill-88" fill="#FFFFFE" points="431 92 461.001 92 461.001 88.999 431 88.999"></polygon>
                <polygon id="Fill-89" fill="#FFFFFE" points="431 98 461.001 98 461.001 95 431 95"></polygon>
                <polygon id="Fill-90" fill="#FFFFFE" points="431 104 461.001 104 461.001 101 431 101"></polygon>
                <polygon id="Fill-91" fill="#FFFFFE" points="431 110 461.001 110 461.001 106.999 431 106.999"></polygon>
                <polygon id="Fill-92" fill="#FFFFFE" points="431 116 461.001 116 461.001 113 431 113"></polygon>
                <polygon id="Fill-93" fill="#FFFFFE" points="431 122 461.001 122 461.001 119 431 119"></polygon>
                <polygon id="Fill-94" fill="#FFFFFE" points="431 134 461.001 134 461.001 131 431 131"></polygon>
                <polygon id="Fill-95" fill="#FFFFFE" points="431 140 461.001 140 461.001 137 431 137"></polygon>
                <polygon id="Fill-96" fill="#FFFFFE" points="431 146 461.001 146 461.001 142.999 431 142.999"></polygon>
                <path d="M221.9998,6 L221.9998,18 L217.0008,18 L217.0008,160 L265.9998,160 L265.9998,18 L249.9998,18 L249.9998,6 L221.9998,6 Z M253.9998,42 L259.9988,42 L259.9988,35 L253.9998,35 L253.9998,42 Z M244.0008,42 L249.9998,42 L249.9998,35 L244.0008,35 L244.0008,42 Z M232.9998,42 L238.9998,42 L238.9998,35 L232.9998,35 L232.9998,42 Z M221.9998,42 L228.9998,42 L228.9998,35 L221.9998,35 L221.9998,42 Z M244.0008,52 L249.9998,52 L249.9998,45 L244.0008,45 L244.0008,52 Z M221.9998,52 L228.9998,52 L228.9998,45 L221.9998,45 L221.9998,52 Z M253.9998,62 L259.9988,62 L259.9988,55 L253.9998,55 L253.9998,62 Z M244.0008,62 L249.9998,62 L249.9998,55 L244.0008,55 L244.0008,62 Z M232.9998,62 L238.9998,62 L238.9998,55 L232.9998,55 L232.9998,62 Z M221.9998,62 L228.9998,62 L228.9998,55 L221.9998,55 L221.9998,62 Z M253.9998,71.999 L259.9988,71.999 L259.9988,65 L253.9998,65 L253.9998,71.999 Z M244.0008,71.999 L249.9998,71.999 L249.9998,65 L244.0008,65 L244.0008,71.999 Z M232.9998,71.999 L238.9998,71.999 L238.9998,65 L232.9998,65 L232.9998,71.999 Z M253.9998,81.999 L259.9988,81.999 L259.9988,75 L253.9998,75 L253.9998,81.999 Z M244.0008,81.999 L249.9998,81.999 L249.9998,75 L244.0008,75 L244.0008,81.999 Z M232.9998,81.999 L238.9998,81.999 L238.9998,75 L232.9998,75 L232.9998,81.999 Z M221.9998,81.999 L228.9998,81.999 L228.9998,75 L221.9998,75 L221.9998,81.999 Z M253.9998,92 L259.9988,92 L259.9988,85 L253.9998,85 L253.9998,92 Z M244.0008,92 L249.9998,92 L249.9998,85 L244.0008,85 L244.0008,92 Z M232.9998,92 L238.9998,92 L238.9998,85 L232.9998,85 L232.9998,92 Z M221.9998,92 L228.9998,92 L228.9998,85 L221.9998,85 L221.9998,92 Z M253.9998,102 L259.9988,102 L259.9988,95 L253.9998,95 L253.9998,102 Z M232.9998,102 L238.9998,102 L238.9998,95 L232.9998,95 L232.9998,102 Z M221.9998,102 L228.9998,102 L228.9998,95 L221.9998,95 L221.9998,102 Z M253.9998,112 L259.9988,112 L259.9988,105 L253.9998,105 L253.9998,112 Z M244.0008,112 L249.9998,112 L249.9998,105 L244.0008,105 L244.0008,112 Z M232.9998,112 L238.9998,112 L238.9998,105 L232.9998,105 L232.9998,112 Z M221.9998,112 L228.9998,112 L228.9998,105 L221.9998,105 L221.9998,112 Z M253.9998,122 L259.9988,122 L259.9988,115 L253.9998,115 L253.9998,122 Z M244.0008,122 L249.9998,122 L249.9998,115 L244.0008,115 L244.0008,122 Z M232.9998,122 L238.9998,122 L238.9998,115 L232.9998,115 L232.9998,122 Z M244.0008,132 L249.9998,132 L249.9998,125 L244.0008,125 L244.0008,132 Z M232.9998,132 L238.9998,132 L238.9998,125 L232.9998,125 L232.9998,132 Z M221.9998,132 L228.9998,132 L228.9998,125 L221.9998,125 L221.9998,132 Z M253.9998,142 L259.9988,142 L259.9988,135 L253.9998,135 L253.9998,142 Z M244.0008,142 L249.9998,142 L249.9998,135 L244.0008,135 L244.0008,142 Z M221.9998,142 L228.9998,142 L228.9998,135 L221.9998,135 L221.9998,142 Z" id="Fill-97" fill="#3A4245"></path>
                <polygon id="Fill-98" fill="#FFFFFE" points="222 42 229 42 229 35 222 35"></polygon>
                <polygon id="Fill-99" fill="#FFFFFE" points="233 42 239 42 239 35 233 35"></polygon>
                <polygon id="Fill-100" fill="#FFFFFE" points="244 42 249.999 42 249.999 35 244 35"></polygon>
                <polygon id="Fill-101" fill="#FFFFFE" points="254 42 259.999 42 259.999 35 254 35"></polygon>
                <polygon id="Fill-102" fill="#FFFFFE" points="222 52 229 52 229 45 222 45"></polygon>
                <polygon id="Fill-103" fill="#FFFFFE" points="244 52 249.999 52 249.999 45 244 45"></polygon>
                <polygon id="Fill-104" fill="#FFFFFE" points="222 62 229 62 229 55 222 55"></polygon>
                <polygon id="Fill-105" fill="#FFFFFE" points="233 62 239 62 239 55 233 55"></polygon>
                <polygon id="Fill-106" fill="#FFFFFE" points="244 62 249.999 62 249.999 55 244 55"></polygon>
                <polygon id="Fill-107" fill="#FFFFFE" points="254 62 259.999 62 259.999 55 254 55"></polygon>
                <polygon id="Fill-108" fill="#FFFFFE" points="233 72 239 72 239 65.001 233 65.001"></polygon>
                <polygon id="Fill-109" fill="#FFFFFE" points="244 72 249.999 72 249.999 65.001 244 65.001"></polygon>
                <polygon id="Fill-110" fill="#FFFFFE" points="254 72 259.999 72 259.999 65.001 254 65.001"></polygon>
                <polygon id="Fill-111" fill="#FFFFFE" points="222 82 229 82 229 75.001 222 75.001"></polygon>
                <polygon id="Fill-112" fill="#FFFFFE" points="233 82 239 82 239 75.001 233 75.001"></polygon>
                <polygon id="Fill-113" fill="#FFFFFE" points="244 82 249.999 82 249.999 75.001 244 75.001"></polygon>
                <polygon id="Fill-114" fill="#FFFFFE" points="254 82 259.999 82 259.999 75.001 254 75.001"></polygon>
                <polygon id="Fill-115" fill="#FFFFFE" points="222 92 229 92 229 85 222 85"></polygon>
                <polygon id="Fill-116" fill="#FFFFFE" points="233 92 239 92 239 85 233 85"></polygon>
                <polygon id="Fill-117" fill="#FFFFFE" points="244 92 249.999 92 249.999 85 244 85"></polygon>
                <polygon id="Fill-118" fill="#FFFFFE" points="254 92 259.999 92 259.999 85 254 85"></polygon>
                <polygon id="Fill-119" fill="#FFFFFE" points="222 102 229 102 229 95 222 95"></polygon>
                <polygon id="Fill-120" fill="#FFFFFE" points="233 102 239 102 239 95 233 95"></polygon>
                <polygon id="Fill-121" fill="#FFFFFE" points="254 102 259.999 102 259.999 95 254 95"></polygon>
                <polygon id="Fill-122" fill="#FFFFFE" points="222 112 229 112 229 105 222 105"></polygon>
                <polygon id="Fill-123" fill="#FFFFFE" points="233 112 239 112 239 105 233 105"></polygon>
                <polygon id="Fill-124" fill="#FFFFFE" points="244 112 249.999 112 249.999 105 244 105"></polygon>
                <polygon id="Fill-125" fill="#FFFFFE" points="254 112 259.999 112 259.999 105 254 105"></polygon>
                <polygon id="Fill-126" fill="#FFFFFE" points="233 122 239 122 239 115 233 115"></polygon>
                <polygon id="Fill-127" fill="#FFFFFE" points="244 122 249.999 122 249.999 115 244 115"></polygon>
                <polygon id="Fill-128" fill="#FFFFFE" points="254 122 259.999 122 259.999 115 254 115"></polygon>
                <polygon id="Fill-129" fill="#FFFFFE" points="222 132 229 132 229 125 222 125"></polygon>
                <polygon id="Fill-130" fill="#FFFFFE" points="233 132 239 132 239 125 233 125"></polygon>
                <polygon id="Fill-131" fill="#FFFFFE" points="244 132 249.999 132 249.999 125 244 125"></polygon>
                <polygon id="Fill-132" fill="#FFFFFE" points="222 142 229 142 229 135 222 135"></polygon>
                <polygon id="Fill-133" fill="#FFFFFE" points="244 142 249.999 142 249.999 135 244 135"></polygon>
                <polygon id="Fill-134" fill="#FFFFFE" points="254 142 259.999 142 259.999 135 254 135"></polygon>
                <path d="M396.0004,2.0004 L396.0004,22.0004 L382.0004,22.0004 L382.0004,38.0004 L374.0004,38.0004 L374.0004,159.9994 L423.0004,159.9994 L423.0004,38.0004 L416.0004,38.0004 L416.0004,22.0004 L401.0004,22.0004 L401.0004,2.0004 L396.0004,2.0004 Z M405.0004,36.9994 L410.0004,36.9994 L410.0004,26.9994 L405.0004,26.9994 L405.0004,36.9994 Z M396.0004,34.9994 L396.0004,26.9994 L401.0004,26.9994 L401.0004,36.9994 L396.0004,36.9994 L396.0004,34.9994 Z M387.0004,36.9994 L392.0004,36.9994 L392.0004,26.9994 L387.0004,26.9994 L387.0004,36.9994 Z M414.0004,53.9994 L419.0004,53.9994 L419.0004,43.9994 L414.0004,43.9994 L414.0004,53.9994 Z M405.0004,53.9994 L410.0004,53.9994 L410.0004,43.9994 L405.0004,43.9994 L405.0004,53.9994 Z M396.0004,53.9994 L401.0004,53.9994 L401.0004,43.9994 L396.0004,43.9994 L396.0004,53.9994 Z M387.0004,53.9994 L392.0004,53.9994 L392.0004,43.9994 L387.0004,43.9994 L387.0004,53.9994 Z M378.0004,53.9994 L383.0004,53.9994 L383.0004,43.9994 L378.0004,43.9994 L378.0004,53.9994 Z M414.0004,69.0004 L419.0004,69.0004 L419.0004,59.0004 L414.0004,59.0004 L414.0004,69.0004 Z M396.0004,69.0004 L401.0004,69.0004 L401.0004,59.0004 L396.0004,59.0004 L396.0004,69.0004 Z M387.0004,69.0004 L392.0004,69.0004 L392.0004,59.0004 L387.0004,59.0004 L387.0004,69.0004 Z M378.0004,69.0004 L383.0004,69.0004 L383.0004,59.0004 L378.0004,59.0004 L378.0004,69.0004 Z M414.0004,84.0004 L419.0004,84.0004 L419.0004,74.0004 L414.0004,74.0004 L414.0004,84.0004 Z M405.0004,84.0004 L410.0004,84.0004 L410.0004,74.0004 L405.0004,74.0004 L405.0004,84.0004 Z M396.0004,84.0004 L401.0004,84.0004 L401.0004,74.0004 L396.0004,74.0004 L396.0004,84.0004 Z M378.0004,84.0004 L383.0004,84.0004 L383.0004,74.0004 L378.0004,74.0004 L378.0004,84.0004 Z M414.0004,98.9994 L419.0004,98.9994 L419.0004,88.9994 L414.0004,88.9994 L414.0004,98.9994 Z M405.0004,98.9994 L410.0004,98.9994 L410.0004,88.9994 L405.0004,88.9994 L405.0004,98.9994 Z M396.0004,98.9994 L401.0004,98.9994 L401.0004,88.9994 L396.0004,88.9994 L396.0004,98.9994 Z M387.0004,98.9994 L392.0004,98.9994 L392.0004,88.9994 L387.0004,88.9994 L387.0004,98.9994 Z M378.0004,98.9994 L383.0004,98.9994 L383.0004,88.9994 L378.0004,88.9994 L378.0004,98.9994 Z M414.0004,114.0004 L419.0004,114.0004 L419.0004,104.0004 L414.0004,104.0004 L414.0004,114.0004 Z M405.0004,114.0004 L410.0004,114.0004 L410.0004,104.0004 L405.0004,104.0004 L405.0004,114.0004 Z M396.0004,114.0004 L401.0004,114.0004 L401.0004,104.0004 L396.0004,104.0004 L396.0004,114.0004 Z M378.0004,114.0004 L383.0004,114.0004 L383.0004,104.0004 L378.0004,104.0004 L378.0004,114.0004 Z M414.0004,129.0004 L419.0004,129.0004 L419.0004,119.0004 L414.0004,119.0004 L414.0004,129.0004 Z M405.0004,129.0004 L410.0004,129.0004 L410.0004,119.0004 L405.0004,119.0004 L405.0004,129.0004 Z M387.0004,129.0004 L392.0004,129.0004 L392.0004,119.0004 L387.0004,119.0004 L387.0004,129.0004 Z M378.0004,129.0004 L383.0004,129.0004 L383.0004,119.0004 L378.0004,119.0004 L378.0004,129.0004 Z M414.0004,143.9994 L419.0004,143.9994 L419.0004,133.9994 L414.0004,133.9994 L414.0004,143.9994 Z M405.0004,143.9994 L410.0004,143.9994 L410.0004,133.9994 L405.0004,133.9994 L405.0004,143.9994 Z M396.0004,143.9994 L401.0004,143.9994 L401.0004,133.9994 L396.0004,133.9994 L396.0004,143.9994 Z M387.0004,143.9994 L392.0004,143.9994 L392.0004,133.9994 L387.0004,133.9994 L387.0004,143.9994 Z M378.0004,143.9994 L383.0004,143.9994 L383.0004,133.9994 L378.0004,133.9994 L378.0004,143.9994 Z" id="Fill-135" fill="#3A4245"></path>
                <polygon id="Fill-136" fill="#FFFFFE" points="378 54 383 54 383 44 378 44"></polygon>
                <polygon id="Fill-137" fill="#FFFFFE" points="387 54 392 54 392 44 387 44"></polygon>
                <polygon id="Fill-138" fill="#FFFFFE" points="396 54 401 54 401 44 396 44"></polygon>
                <polygon id="Fill-139" fill="#FFFFFE" points="405 54 410 54 410 44 405 44"></polygon>
                <polygon id="Fill-140" fill="#FFFFFE" points="414 54 419 54 419 44 414 44"></polygon>
                <polygon id="Fill-141" fill="#FFFFFE" points="378 69 383 69 383 59 378 59"></polygon>
                <polygon id="Fill-142" fill="#FFFFFE" points="387 69 392 69 392 59 387 59"></polygon>
                <polygon id="Fill-143" fill="#FFFFFE" points="396 69 401 69 401 59 396 59"></polygon>
                <polygon id="Fill-144" fill="#FFFFFE" points="414 69 419 69 419 59 414 59"></polygon>
                <polygon id="Fill-145" fill="#FFFFFE" points="378 84 383 84 383 74 378 74"></polygon>
                <polygon id="Fill-146" fill="#FFFFFE" points="396 84 401 84 401 74 396 74"></polygon>
                <polygon id="Fill-147" fill="#FFFFFE" points="405 84 410 84 410 74 405 74"></polygon>
                <polygon id="Fill-148" fill="#FFFFFE" points="414 84 419 84 419 74 414 74"></polygon>
                <polygon id="Fill-149" fill="#FFFFFE" points="378 99 383 99 383 89 378 89"></polygon>
                <polygon id="Fill-150" fill="#FFFFFE" points="387 99 392 99 392 89 387 89"></polygon>
                <polygon id="Fill-151" fill="#FFFFFE" points="396 99 401 99 401 89 396 89"></polygon>
                <polygon id="Fill-152" fill="#FFFFFE" points="405 99 410 99 410 89 405 89"></polygon>
                <polygon id="Fill-153" fill="#FFFFFE" points="414 99 419 99 419 89 414 89"></polygon>
                <polygon id="Fill-154" fill="#FFFFFE" points="378 114 383 114 383 104 378 104"></polygon>
                <polygon id="Fill-155" fill="#FFFFFE" points="396 114 401 114 401 104 396 104"></polygon>
                <polygon id="Fill-156" fill="#FFFFFE" points="405 114 410 114 410 104 405 104"></polygon>
                <polygon id="Fill-157" fill="#FFFFFE" points="414 114 419 114 419 104 414 104"></polygon>
                <polygon id="Fill-158" fill="#FFFFFE" points="378 129 383 129 383 119 378 119"></polygon>
                <polygon id="Fill-159" fill="#FFFFFE" points="387 129 392 129 392 119 387 119"></polygon>
                <polygon id="Fill-160" fill="#FFFFFE" points="405 129 410 129 410 119 405 119"></polygon>
                <polygon id="Fill-161" fill="#FFFFFE" points="414 129 419 129 419 119 414 119"></polygon>
                <polygon id="Fill-162" fill="#FFFFFE" points="378 144 383 144 383 134 378 134"></polygon>
                <polygon id="Fill-163" fill="#FFFFFE" points="387 144 392 144 392 134 387 134"></polygon>
                <polygon id="Fill-164" fill="#FFFFFE" points="396 144 401 144 401 134 396 134"></polygon>
                <polygon id="Fill-165" fill="#FFFFFE" points="405 144 410 144 410 134 405 134"></polygon>
                <polygon id="Fill-166" fill="#FFFFFE" points="414 144 419 144 419 134 414 134"></polygon>
                <polygon id="Fill-167" fill="#FFFFFE" points="387 37 392 37 392 27 387 27"></polygon>
                <polygon id="Fill-168" fill="#FFFFFE" points="396.0004 26.9997 396.0004 36.9997 401.0004 36.9997 401.0004 34.9997 401.0004 26.9997"></polygon>
                <polygon id="Fill-169" fill="#FFFFFE" points="405 37 410 37 410 27 405 27"></polygon>
                <polygon id="Fill-170" fill="#3A4245" points="517 161 553 161 553 89 517 89"></polygon>
                <polygon id="Fill-171" fill="#FFFFFE" points="521 97 533.001 97 533.001 94 521 94"></polygon>
                <polygon id="Fill-172" fill="#FFFFFE" points="537.75 97 549 97 549 94 537.75 94"></polygon>
                <polygon id="Fill-173" fill="#FFFFFE" points="521 105 533.001 105 533.001 102 521 102"></polygon>
                <polygon id="Fill-174" fill="#FFFFFE" points="537.75 105 549 105 549 102 537.75 102"></polygon>
                <polygon id="Fill-175" fill="#FFFFFE" points="521 113 533.001 113 533.001 110 521 110"></polygon>
                <polygon id="Fill-176" fill="#FFFFFE" points="537.75 113 549 113 549 110 537.75 110"></polygon>
                <polygon id="Fill-177" fill="#FFFFFE" points="521 121 533.001 121 533.001 117.999 521 117.999"></polygon>
                <polygon id="Fill-178" fill="#FFFFFE" points="537.75 121 549 121 549 117.999 537.75 117.999"></polygon>
                <polygon id="Fill-179" fill="#FFFFFE" points="537.75 129 549 129 549 125.999 537.75 125.999"></polygon>
                <polygon id="Fill-180" fill="#FFFFFE" points="521 129 533.001 129 533.001 125.999 521 125.999"></polygon>
                <polygon id="Fill-181" fill="#FFFFFE" points="521 137 533.001 137 533.001 133.999 521 133.999"></polygon>
                <polygon id="Fill-182" fill="#FFFFFE" points="537.75 137 549 137 549 133.999 537.75 133.999"></polygon>
                <polygon id="Fill-183" fill="#FFFFFE" points="521 145 533.001 145 533.001 142 521 142"></polygon>
                <polygon id="Fill-184" fill="#FFFFFE" points="537.75 145 549 145 549 142 537.75 142"></polygon>
                <polygon id="Fill-185" fill="#3A4245" points="92 161 128 161 128 89 92 89"></polygon>
                <polygon id="Fill-186" fill="#FFFFFE" points="96.626 97 103.804 97 103.804 94 96.626 94"></polygon>
                <polygon id="Fill-187" fill="#FFFFFE" points="106.636 97 113.365 97 113.365 94 106.636 94"></polygon>
                <polygon id="Fill-188" fill="#FFFFFE" points="106.636 105 113.365 105 113.365 102 106.636 102"></polygon>
                <polygon id="Fill-189" fill="#FFFFFE" points="96.626 113 103.804 113 103.804 110 96.626 110"></polygon>
                <polygon id="Fill-190" fill="#FFFFFE" points="106.636 113 113.365 113 113.365 110 106.636 110"></polygon>
                <polygon id="Fill-191" fill="#FFFFFE" points="96.626 121 103.804 121 103.804 117.999 96.626 117.999"></polygon>
                <polygon id="Fill-192" fill="#FFFFFE" points="106.636 121 113.365 121 113.365 117.999 106.636 117.999"></polygon>
                <polygon id="Fill-193" fill="#FFFFFE" points="106.636 129 113.365 129 113.365 125.999 106.636 125.999"></polygon>
                <polygon id="Fill-194" fill="#FFFFFE" points="96.626 137 103.804 137 103.804 133.999 96.626 133.999"></polygon>
                <polygon id="Fill-195" fill="#FFFFFE" points="106.636 137 113.365 137 113.365 133.999 106.636 133.999"></polygon>
                <polygon id="Fill-196" fill="#FFFFFE" points="96.626 145 103.804 145 103.804 142 96.626 142"></polygon>
                <polygon id="Fill-197" fill="#FFFFFE" points="115.626 97 122.804 97 122.804 94 115.626 94"></polygon>
                <polygon id="Fill-198" fill="#FFFFFE" points="115.626 105 122.804 105 122.804 102 115.626 102"></polygon>
                <polygon id="Fill-199" fill="#FFFFFE" points="115.626 121 122.804 121 122.804 117.999 115.626 117.999"></polygon>
                <polygon id="Fill-200" fill="#FFFFFE" points="115.626 129 122.804 129 122.804 125.999 115.626 125.999"></polygon>
                <polygon id="Fill-201" fill="#FFFFFE" points="115.626 137 122.804 137 122.804 133.999 115.626 133.999"></polygon>
                <polygon id="Fill-202" fill="#FFFFFE" points="106.636 145 113.365 145 113.365 142 106.636 142"></polygon>
                <path d="M142.9996,72.9996 L142.9996,74.0006 L137.9996,74.0006 L137.9996,72.9996 L131.9996,72.9996 L131.9996,156.0006 L167.9996,156.0006 L167.9996,72.9996 L142.9996,72.9996 Z M136.0006,80.9996 L164.0006,80.9996 L164.0006,77.9996 L136.0006,77.9996 L136.0006,80.9996 Z M136.0006,88.9996 L164.0006,88.9996 L164.0006,85.9996 L136.0006,85.9996 L136.0006,88.9996 Z M136.0006,97.0006 L164.0006,97.0006 L164.0006,94.0006 L136.0006,94.0006 L136.0006,97.0006 Z M136.0006,105.0006 L164.0006,105.0006 L164.0006,102.0006 L136.0006,102.0006 L136.0006,105.0006 Z M136.0006,113.0006 L164.0006,113.0006 L164.0006,110.0006 L136.0006,110.0006 L136.0006,113.0006 Z M136.0006,121.0006 L164.0006,121.0006 L164.0006,117.9996 L136.0006,117.9996 L136.0006,121.0006 Z M136.0006,129.0006 L164.0006,129.0006 L164.0006,125.9996 L136.0006,125.9996 L136.0006,129.0006 Z M136.0006,137.0006 L164.0006,137.0006 L164.0006,133.9996 L136.0006,133.9996 L136.0006,137.0006 Z" id="Fill-203" fill="#3A4245"></path>
                <polygon id="Fill-204" fill="#FFFFFE" points="136 81 164 81 164 78 136 78"></polygon>
                <polygon id="Fill-205" fill="#FFFFFE" points="136 89 164 89 164 86 136 86"></polygon>
                <polygon id="Fill-206" fill="#FFFFFE" points="136 97 164 97 164 94 136 94"></polygon>
                <polygon id="Fill-207" fill="#FFFFFE" points="136 105 164 105 164 102 136 102"></polygon>
                <polygon id="Fill-208" fill="#FFFFFE" points="136 113 164 113 164 110 136 110"></polygon>
                <polygon id="Fill-209" fill="#FFFFFE" points="136 121 164 121 164 117.999 136 117.999"></polygon>
                <polygon id="Fill-210" fill="#FFFFFE" points="136 129 164 129 164 125.999 136 125.999"></polygon>
                <polygon id="Fill-211" fill="#FFFFFE" points="136 137 164 137 164 133.999 136 133.999"></polygon>
                <polygon id="Fill-212" fill="#3A4245" points="138 74 143 74 143 63.999 138 63.999"></polygon>
                <path d="M480.0001,60 L480.0001,73 L469.0001,73 L469.0001,156 L513.0001,156 L513.0001,73 L493.0001,73 L493.0001,65 L488.0001,65 L488.0001,73 L485.0001,73 L485.0001,60 L480.0001,60 Z M497.0001,86 L501.0001,86 L501.0001,81 L497.0001,81 L497.0001,86 Z M489.0001,86 L493.0001,86 L493.0001,81 L489.0001,81 L489.0001,86 Z M497.0001,93 L501.0001,93 L501.0001,88 L497.0001,88 L497.0001,93 Z M489.0001,93 L493.0001,93 L493.0001,88 L489.0001,88 L489.0001,93 Z M497.0001,99.999 L501.0001,99.999 L501.0001,95 L497.0001,95 L497.0001,99.999 Z M489.0001,99.999 L493.0001,99.999 L493.0001,95 L489.0001,95 L489.0001,99.999 Z M497.0001,106.999 L501.0001,106.999 L501.0001,102 L497.0001,102 L497.0001,106.999 Z M489.0001,106.999 L493.0001,106.999 L493.0001,102 L489.0001,102 L489.0001,106.999 Z M497.0001,114 L501.0001,114 L501.0001,109 L497.0001,109 L497.0001,114 Z M489.0001,114 L493.0001,114 L493.0001,109 L489.0001,109 L489.0001,114 Z M497.0001,121 L501.0001,121 L501.0001,116 L497.0001,116 L497.0001,121 Z M489.0001,121 L493.0001,121 L493.0001,116 L489.0001,116 L489.0001,121 Z M497.0001,128 L501.0001,128 L501.0001,123 L497.0001,123 L497.0001,128 Z M489.0001,128 L493.0001,128 L493.0001,123 L489.0001,123 L489.0001,128 Z M497.0001,134.999 L501.0001,134.999 L501.0001,130 L497.0001,130 L497.0001,134.999 Z M489.0001,134.999 L493.0001,134.999 L493.0001,130 L489.0001,130 L489.0001,134.999 Z M497.0001,141.999 L501.0001,141.999 L501.0001,137 L497.0001,137 L497.0001,141.999 Z M489.0001,141.999 L493.0001,141.999 L493.0001,137 L489.0001,137 L489.0001,141.999 Z M497.0001,149 L501.0001,149 L501.0001,144 L497.0001,144 L497.0001,149 Z M489.0001,149 L493.0001,149 L493.0001,144 L489.0001,144 L489.0001,149 Z" id="Fill-213" fill="#3A4245"></path>
                <polygon id="Fill-214" fill="#FFFFFE" points="497 86 501 86 501 81 497 81"></polygon>
                <polygon id="Fill-215" fill="#FFFFFE" points="497 93 501 93 501 88 497 88"></polygon>
                <polygon id="Fill-216" fill="#FFFFFE" points="497 100 501 100 501 95 497 95"></polygon>
                <polygon id="Fill-217" fill="#FFFFFE" points="497 107 501 107 501 102.001 497 102.001"></polygon>
                <polygon id="Fill-218" fill="#FFFFFE" points="497 114 501 114 501 109 497 109"></polygon>
                <polygon id="Fill-219" fill="#FFFFFE" points="497 121 501 121 501 116 497 116"></polygon>
                <polygon id="Fill-220" fill="#FFFFFE" points="497 128 501 128 501 123 497 123"></polygon>
                <polygon id="Fill-221" fill="#FFFFFE" points="497 135 501 135 501 130.001 497 130.001"></polygon>
                <polygon id="Fill-222" fill="#FFFFFE" points="497 142 501 142 501 137.001 497 137.001"></polygon>
                <polygon id="Fill-223" fill="#FFFFFE" points="497 149 501 149 501 144 497 144"></polygon>
                <polygon id="Fill-224" fill="#FFFFFE" points="489 86 493 86 493 81 489 81"></polygon>
                <polygon id="Fill-225" fill="#FFFFFE" points="489 93 493 93 493 88 489 88"></polygon>
                <polygon id="Fill-226" fill="#FFFFFE" points="489 100 493 100 493 95 489 95"></polygon>
                <polygon id="Fill-227" fill="#FFFFFE" points="489 107 493 107 493 102.001 489 102.001"></polygon>
                <polygon id="Fill-228" fill="#FFFFFE" points="489 114 493 114 493 109 489 109"></polygon>
                <polygon id="Fill-229" fill="#FFFFFE" points="489 121 493 121 493 116 489 116"></polygon>
                <polygon id="Fill-230" fill="#FFFFFE" points="489 128 493 128 493 123 489 123"></polygon>
                <polygon id="Fill-231" fill="#FFFFFE" points="489 135 493 135 493 130.001 489 130.001"></polygon>
                <polygon id="Fill-232" fill="#FFFFFE" points="489 142 493 142 493 137.001 489 137.001"></polygon>
                <polygon id="Fill-233" fill="#FFFFFE" points="489 149 493 149 493 144 489 144"></polygon>
            </g>
        </g>
    </g>
</svg>